<?xml version="1.0" encoding="UTF-8"?><svg width="73px" height="90px" viewBox="0 0 73 90" version="1.1" xmlns="http://www.w3.org/2000/svg" xmlns:xlink="http://www.w3.org/1999/xlink"><title>Regal Gold</title><desc>Created with Sketch.</desc><defs><path d="M3.97040458,2.4103684 L9.54034395,2.36014981 C10.4408983,2.35203041 11.1775238,3.07549185 11.1856432,3.97604616 C11.1857316,3.98584695 11.1857316,3.99564833 11.1856432,4.00544911 L11.1348483,9.63931883 C11.1268322,10.5284122 10.4080453,11.2471991 9.51895191,11.2552152 L3.94901254,11.3054338 C3.04845823,11.3135532 2.31183264,10.5900917 2.30371324,9.68953742 C2.30362488,9.67973664 2.30362488,9.66993526 2.30371324,9.66013448 L2.35450823,4.02626475 C2.3625243,3.13717137 3.0813112,2.41838447 3.97040458,2.4103684 Z" id="path-1"/></defs><g id="Regal-Gold" stroke="none" stroke-width="1" fill="none" fill-rule="evenodd"><path d="M14,0 L59.0000325,0 C66.732019,-3.19669972e-15 73.0000325,6.2680135 73.0000325,14 L73.0000325,76 C73.0000325,83.7319865 66.732019,90 59.0000325,90 L14,90 C6.2680135,90 1.67924438e-13,83.7319865 1.63424829e-13,76 L1.63424829e-13,14 C1.60701577e-13,6.2680135 6.2680135,-3.56013962e-16 14,0 Z" id="Shield-Copy-13" fill="#FFB100" fill-rule="nonzero"/><path d="M14,0 L59.0000325,0 C66.732019,2.1323708e-15 73.0000325,6.2680135 73.0000325,14 L73.0000325,72 C73.0000325,79.7319865 66.732019,86 59.0000325,86 L14,86 C6.2680135,86 1.67924438e-13,79.7319865 1.63424829e-13,72 L1.63424829e-13,14 C1.64254291e-13,6.2680135 6.2680135,1.42034288e-15 14,0 Z" id="Shield-Copy-2" fill="#FFC800" fill-rule="nonzero"/><path d="M72.6892186,11.052545 L72.6730517,10.9780934 C72.7490544,11.3235385 72.8122994,11.6737674 72.8622678,12.0282609 L72.8622617,12.028218 C72.931611,12.5202064 72.9753855,13.020365 72.992204,13.5273491 L72.9921977,13.5271568 L73.0000325,14 L73.0000325,42.8241792 L29.3449452,85.9990934 L14,86 C9.33813235,86 5.20845968,83.7214024 2.66394524,80.2171706 L72.6731335,10.9780934 C72.6785603,11.0031342 72.6839221,11.0278275 72.6892186,11.052545 Z" id="Path" fill="#FFD900" fill-rule="nonzero"/><path d="M33.4472222,-1.3500312e-13 L59.0000325,-1.3500312e-13 C61.0437138,-1.3500312e-13 62.9851182,0.437899126 64.7355358,1.22498731 L26.5217067,39.0188842 C22.0411766,43.4501777 14.8288811,43.4501777 10.348351,39.0188842 L10.3033009,38.9743292 C5.86162347,34.5814614 5.82205544,27.4196475 10.2149232,22.9779702 C10.2442194,22.9483484 10.2736791,22.9188887 10.3033009,22.8895925 L33.4472222,-1.3500312e-13 Z" id="Path" fill="#FFD900" fill-rule="nonzero"/><path d="M11.1505656,31.8659697 L17.235019,31.8133681 C18.1355762,31.8055825 18.8719336,32.529317 18.8797191,33.4298743 C18.8798006,33.4392955 18.8798004,33.4487172 18.8797185,33.4581385 L18.8266789,39.5628342 C18.8188546,40.4633911 18.082466,41.1870939 17.1819091,41.1792696 C17.1021295,41.1785764 17.0225083,41.1720292 16.943687,41.1596807 L11.7283087,40.342614 C11.0279271,40.2328888 10.4786798,39.6832204 10.3694914,38.982755 L9.55345595,33.7477276 C9.41474705,32.8578827 10.023663,32.0240752 10.9135079,31.8853663 C10.9919496,31.8731388 11.0711795,31.866656 11.1505656,31.8659697 Z" id="Rectangle-99" fill="#FF9600" transform="translate(14.078403, 36.625566) rotate(-323.000000) translate(-14.078403, -36.625566)"/><path d="M54.8890839,31.8659697 L60.9735373,31.8133681 C61.8740946,31.8055825 62.6104519,32.529317 62.6182374,33.4298743 C62.6183189,33.4392955 62.6183187,33.4487172 62.6182368,33.4581385 L62.5651972,39.5628342 C62.5573729,40.4633911 61.8209844,41.1870939 60.9204275,41.1792696 C60.8406478,41.1785764 60.7610266,41.1720292 60.6822054,41.1596807 L55.466827,40.342614 C54.7664455,40.2328888 54.2171982,39.6832204 54.1080097,38.982755 L53.2919743,33.7477276 C53.1532654,32.8578827 53.7621814,32.0240752 54.6520262,31.8853663 C54.7304679,31.8731388 54.8096979,31.866656 54.8890839,31.8659697 Z" id="Rectangle-99" fill="#FF9600" transform="translate(57.816921, 36.625566) scale(-1, 1) rotate(-323.000000) translate(-57.816921, -36.625566)"/><path d="M14.3632975,20.2312254 L24.4418583,27.8575069 C25.003136,28.2822165 25.7986722,28.1931801 26.2521718,27.6548967 L35.8479609,16.2651304 C36.3187979,15.7062683 37.153534,15.6349098 37.7123961,16.1057468 C37.7800009,16.1627032 37.8417276,16.2262912 37.8966513,16.2955575 L46.8413852,27.576113 C47.2954178,28.1487113 48.1276665,28.2448278 48.7002648,27.7907952 C48.7010221,27.7901947 48.7017787,27.7895934 48.7025347,27.7889913 L58.0363725,20.3545053 C58.6079745,19.8992191 59.4404319,19.9935117 59.895718,20.5651138 C60.1081236,20.8317843 60.2094009,21.1701496 60.1784349,21.5096646 L57.8759783,46.7540977 C57.8138332,47.4354641 57.242479,47.9570786 56.5582844,47.9570786 L15.8767554,47.9570786 C15.1925608,47.9570786 14.6212065,47.4354641 14.5590615,46.7540977 L12.2471996,21.4065436 C12.1808247,20.6788014 12.7169689,20.0350423 13.4447112,19.9686675 C13.7729199,19.9387327 14.1004862,20.0323605 14.3632975,20.2312254 Z" id="Mask" fill="#FFB100"/><path d="M25.0470126,28.1115324 C25.486525,28.1760589 25.9468611,28.0172866 26.2521718,27.6548967 L35.3005613,16.9148689 C35.3021643,16.9445012 35.3029762,16.9743438 35.3029762,17.0043761 L35.3029762,45.7544149 C35.3029762,46.6550059 34.572903,47.385079 33.6723121,47.385079 L26.6776767,47.385079 C25.7770858,47.385079 25.0470126,46.6550059 25.0470126,45.7544149 L25.0470126,28.1115324 L25.0470126,28.1115324 Z" id="Path" fill="#FFC101"/><g id="Rectangle-98" transform="translate(29.759355, 28.205313)"><mask id="mask-2" fill="white"><use xlink:href="#path-1"/></mask><use id="Mask" fill="#FF9600" transform="translate(6.744678, 6.832792) rotate(-315.000000) translate(-6.744678, -6.832792)" xlink:href="#path-1"/><path d="M7.03931641,3.12632271 L7.03931641,5.74155863 C7.03931641,6.64214954 6.30924322,7.37222273 5.40865231,7.37222273 L2.84323352,7.37222273 C2.43387402,7.37222273 2.10202258,7.04037128 2.10202258,6.63101179 C2.10202258,6.43626827 2.17866484,6.24934811 2.3153801,6.1106615 L5.77025205,2.60597243 C6.05763358,2.31444703 6.52693036,2.31108777 6.81845576,2.59846929 C6.95976094,2.7377659 7.03931641,2.9279022 7.03931641,3.12632271 Z" fill="#FFD900" mask="url(#mask-2)"/></g><path d="M14.5353207,45.4671024 L57.6078904,45.4671024 C59.2324848,45.4671024 60.5494788,46.7840964 60.5494788,48.4086909 C60.5494788,50.0332853 59.2324848,51.3502793 57.6078904,51.3502793 L14.5353207,51.3502793 C12.9107263,51.3502793 11.5937323,50.0332853 11.5937323,48.4086909 C11.5937323,46.7840964 12.9107263,45.4671024 14.5353207,45.4671024 Z" id="Rectangle-97" fill="#FF9600"/></g></svg>